PathFileType	4	(X/Y/Z)	s01c0302.trc
DataRate	CameraRate	NumFrames	NumMarkers	Units	OrigDataRate	OrigDataStartFrame	OrigNumFrames
200	200	4	48	mm	200	1250	2000
Frame#	Time	racr			lacr			c7			jug			rlel			rdr			llel			ldr			s2			lic			ric			lasi			rasi			rpsi			lpsi			rgt			lgt			rth1			rth2			rth3			rth4			rlfc			rsh1			rsh2			rsh3			rsh4			rlmal			rmmal			rcal			rtoe			rmt5			lth1			lth2			lth4			lth3			llfc			lsh1			lsh2			lsh3			lsh4			llmal			lmmal			lcal			ltoe			lmt5			SBIKE			LBIKE			RBIKE			
		X1	Y1	Z1	X2	Y2	Z2	X3	Y3	Z3	X4	Y4	Z4	X5	Y5	Z5	X6	Y6	Z6	X7	Y7	Z7	X8	Y8	Z8	X9	Y9	Z9	X10	Y10	Z10	X11	Y11	Z11	X12	Y12	Z12	X13	Y13	Z13	X14	Y14	Z14	X15	Y15	Z15	X16	Y16	Z16	X17	Y17	Z17	X18	Y18	Z18	X19	Y19	Z19	X20	Y20	Z20	X21	Y21	Z21	X22	Y22	Z22	X23	Y23	Z23	X24	Y24	Z24	X25	Y25	Z25	X26	Y26	Z26	X27	Y27	Z27	X28	Y28	Z28	X29	Y29	Z29	X30	Y30	Z30	X31	Y31	Z31	X32	Y32	Z32	X33	Y33	Z33	X34	Y34	Z34	X35	Y35	Z35	X36	Y36	Z36	X37	Y37	Z37	X38	Y38	Z38	X39	Y39	Z39	X40	Y40	Z40	X41	Y41	Z41	X42	Y42	Z42	X43	Y43	Z43	X44	Y44	Z44	X45	Y45	Z45	X46	Y46	Z46	X47	Y47	Z47	X48	Y48	Z48	
1250	6.2500	715.759827	1371.157227	-106.247253	741.872620	1327.840820	-432.355713	696.675354	1436.272095	-272.971069	682.065491	1274.186523	-265.325256	632.087158	1098.856689	0.387376	736.905151	868.195679	-62.347984	654.442383	1070.012817	-550.890747	756.270264	872.648499	-463.616547	0.000000	0.000000	-0.000000	333.246674	1198.546143	-434.603943	304.493469	1237.459229	-111.578392	325.441345	1150.104980	-407.224976	332.121338	1188.530151	-138.601196	178.678314	1270.498535	-229.491165	184.245911	1260.105225	-336.806213	258.867828	1140.703491	-72.559067	236.895233	1068.858276	-448.533142	359.119690	1064.338501	-49.322384	434.429871	1030.528076	-50.256081	513.919434	987.735168	-54.679707	459.676208	1078.115112	-69.203621	586.042114	910.596191	-75.981346	506.545074	836.429077	-51.862026	447.587708	775.110657	-58.349964	379.564606	719.082886	-74.328697	482.752106	742.525330	-94.835869	269.400452	641.257507	-102.806000	315.004608	629.007812	-177.610428	217.494247	642.980347	-159.921631	406.171814	448.883179	-133.087738	307.005676	499.773773	-69.587662	236.228897	950.992065	-456.090942	265.357025	866.369934	-458.636597	317.188721	883.535889	-459.753479	288.878418	785.413879	-441.361115	313.896912	664.390930	-423.749725	241.599838	581.731995	-456.481903	213.314301	500.907227	-448.724030	182.345505	420.969940	-435.527435	267.562866	483.530731	-426.406830	145.915924	301.552643	-419.957947	175.661407	299.446106	-347.069794	98.495209	303.634460	-380.264954	306.794312	120.947800	-372.386688	211.522369	162.419434	-443.387909	-224.580414	892.850647	-253.452972	-12.684795	84.440178	-456.264679	-21.692007	81.042122	-56.104637	
1251	6.2550	714.922119	1371.313721	-105.397713	741.703857	1328.532837	-431.795197	696.151367	1436.648071	-272.522064	681.777710	1274.554321	-264.523071	628.041870	1099.812500	2.343482	736.115662	869.816284	-61.986523	654.638855	1070.635864	-550.211670	756.404053	872.282837	-463.770325	0.000000	0.000000	-0.000000	333.035217	1200.492065	-435.269073	302.668945	1239.566406	-111.773712	325.758636	1151.380981	-407.623260	331.207733	1190.346802	-138.584167	178.020813	1271.241089	-230.917923	184.045990	1261.189941	-337.927551	257.240723	1141.810791	-73.847717	238.494919	1070.008179	-449.870941	357.414581	1064.965698	-51.156425	433.046936	1030.936523	-52.482841	512.468872	988.613464	-55.725319	458.091980	1078.993530	-70.064743	585.053772	912.584595	-76.970261	508.647705	837.185608	-53.431469	450.518951	774.815063	-59.149895	383.357147	717.974854	-75.174149	485.768860	742.570435	-95.929367	272.529053	636.806641	-102.744125	318.211945	626.133545	-177.485825	219.865952	636.024780	-159.301117	416.335449	450.065430	-132.817093	315.238617	496.521881	-69.022560	238.543976	952.185303	-457.023987	268.042603	867.766357	-458.600922	319.626495	884.988281	-459.996857	291.579895	786.855469	-441.136230	316.102081	665.784424	-423.685974	241.888565	584.572998	-456.249603	211.866333	504.380005	-448.402863	179.157623	425.135773	-434.960236	265.841034	485.907532	-426.071228	140.239319	306.674103	-419.695282	169.648926	303.574493	-346.194519	92.689293	309.717926	-379.622681	296.570984	122.099586	-372.655670	202.362137	166.237198	-443.312164	-224.710968	892.859436	-253.500549	-12.714662	84.463776	-456.273743	-21.722723	81.068016	-56.125568	
1252	6.2600	713.934082	1371.394287	-104.440056	741.524658	1329.059692	-431.155457	695.641418	1436.992798	-272.004944	681.417053	1274.866821	-263.546448	623.877625	1101.028076	4.327523	735.355835	871.490234	-61.491676	654.873718	1071.166870	-549.687805	756.385864	872.098694	-463.906647	0.000000	0.000000	-0.000000	332.500214	1202.745728	-436.141388	301.183655	1241.600586	-112.037582	325.949005	1153.017212	-408.051819	330.217285	1192.334839	-138.350525	177.464294	1271.867310	-232.049683	183.684799	1262.266602	-338.737183	255.638077	1142.859375	-75.143715	239.938568	1071.517090	-451.029083	355.868866	1065.206543	-52.848946	431.480103	1031.068604	-53.924629	510.771179	988.671265	-56.899715	456.689941	1079.226685	-71.123772	583.791504	913.189026	-78.417412	509.914093	836.452454	-55.451870	452.203552	773.511230	-60.202816	385.310699	716.196350	-75.266327	487.351807	741.054382	-97.073082	275.520599	631.462402	-102.191772	321.119354	622.149475	-177.291763	221.956528	628.205627	-158.323730	426.024323	450.753815	-132.458878	323.294067	492.670471	-68.221794	241.182434	953.326660	-457.803101	271.542664	869.237183	-458.267822	322.779419	886.825928	-459.959137	295.351868	788.505859	-440.683838	319.305328	667.312927	-423.876892	242.845398	587.594421	-455.623810	211.175980	508.255280	-447.866852	176.605728	429.857605	-434.289398	264.775208	488.559235	-425.657684	135.122894	312.666931	-419.546417	164.240982	308.405853	-345.279816	87.427689	316.442841	-378.936859	286.461334	123.697838	-372.955383	193.531265	170.678741	-443.207397	-224.850235	892.873352	-253.512512	-12.742720	84.503403	-456.268433	-21.742296	81.081833	-56.144535	
1253	6.2650	712.774048	1371.435547	-103.317062	741.410217	1329.496948	-430.489807	695.171326	1437.343262	-271.398285	680.950928	1275.096191	-262.673248	620.083130	1102.199829	6.092418	734.652649	873.135620	-60.901119	655.224243	1071.798340	-549.451843	756.338562	871.187256	-464.399902	0.000000	0.000000	-0.000000	331.753723	1205.337158	-437.217072	299.997284	1243.479980	-112.237846	325.919617	1154.912598	-408.741791	329.484406	1194.014038	-138.411926	176.738556	1272.523560	-232.816513	183.306824	1263.326904	-339.195251	254.128601	1143.722778	-76.345901	241.190674	1073.007080	-451.928619	354.427399	1065.088745	-54.793285	430.008301	1030.631226	-55.378910	508.781036	988.000061	-58.206238	455.472076	1078.843018	-72.102905	582.490967	912.358154	-80.483887	509.859406	834.509521	-57.562767	452.635803	771.114746	-61.371563	386.244263	712.912964	-75.331253	488.000732	738.196045	-97.720352	278.228333	624.688416	-101.178581	323.109558	617.422546	-176.635361	223.778107	619.537048	-157.236145	434.826599	450.739502	-132.348984	330.664124	487.805939	-67.696342	244.119308	954.330750	-458.358246	275.713715	870.629517	-457.816132	326.953796	888.867310	-459.649445	300.079254	790.328491	-440.111542	323.237610	669.141296	-423.751709	244.771881	591.103210	-455.287872	211.185608	512.465637	-447.285400	174.801453	435.013855	-433.667664	264.443604	491.524292	-425.110321	130.561844	318.967163	-419.457977	159.608780	313.763580	-344.583405	82.684601	323.743439	-378.286621	276.629578	125.760452	-373.092377	185.061478	175.641724	-443.056519	-224.950684	892.905518	-253.502304	-12.767671	84.555458	-456.256531	-21.781290	81.126808	-56.130104	
